<?xml version="1.0" encoding="UTF-8"?>
<svg width="1200pt" height="1200pt" version="1.1" viewBox="0 0 1200 1200" xmlns="http://www.w3.org/2000/svg">
 <g fill="#ffd65b">
  <path d="m500 250c-43.645 0-85.84 6.2148-125.75 17.805 72.539-101.58 191.41-167.8 325.75-167.8 220.91 0 400 179.09 400 400 0 134.34-66.219 253.2-167.8 325.75 11.59-39.906 17.805-82.102 17.805-125.75 0-248.53-201.47-450-450-450z"/>
  <path d="m900 700c0 220.91-179.09 400-400 400s-400-179.09-400-400 179.09-400 400-400 400 179.09 400 400z"/>
 </g>
</svg>
